<svg xmlns="http://www.w3.org/2000/svg" xmlns:xlink="http://www.w3.org/1999/xlink" class="logos-sgf">
	<defs>
		<style>
			.white {
				fill: #FFFFFF;
			}
			
			.maroon {
				fill: #5E0009;
			}
			
			#logo-med,
			#logo-small {
				display: none;
			}
			
			@media all and (max-width: 450px) {
				#logo-large {
					display: none;
				}
				#logo-med {
					display: inline-block;
				}
			}
			
			@media all and (max-width: 200px) {
				#logo-large,
				#logo-med {
					display: none;
				}
				#logo-small {
					display: inline-block;
				}
			}
		</style>
	</defs>
	<symbol id="logos-sgf-university" viewBox="0 0 161.151 6.554">
		<title>University</title>
		<path d="M37.6,6.4H39V0.2h-1.4V6.4z M54.4,4.5L54.4,4.5L53,0.2h-1.4l2,6.3h1.6l2.1-6.3h-1.4L54.4,4.5z M4,4C4,5,3.6,5.4,2.7,5.4 C1.6,5.4,1.4,4.7,1.4,4V0.2H0V4c0,1.7,1,2.5,2.7,2.5c1.7,0,2.7-0.8,2.7-2.5V0.2H4V4z M23,4.3L23,4.3l-2.6-4.2H19v6.3h1.3V2.2h0 l2.6,4.2h1.4V0.2H23V4.3z M71.6,3.7h3V2.6h-3V1.3h3.3V0.2h-4.7v6.3H75V5.2h-3.4V3.7z M92.5,3.5L92.5,3.5c0.7-0.3,1-0.8,1-1.6 c0-0.9-0.7-1.7-1.8-1.7h-3.4v6.3h1.4V4H91c0.7,0,0.9,0.3,1,0.9c0.1,0.5,0.1,1.1,0.2,1.5h1.4c-0.2-0.4-0.2-1.1-0.3-1.5 C93.3,4.3,93.1,3.6,92.5,3.5z M91.1,3h-1.5V1.2h1.5c0.6,0,0.9,0.3,0.9,0.9C92.1,2.7,91.7,3,91.1,3z M159.6,0.2l-1.5,2.5l-1.5-2.5 h-1.6l2.3,3.8v2.4h1.4V4l2.3-3.9H159.6z M138.2,1.3h1.9v5.1h1.4V1.3h1.9V0.2h-5.1V1.3z M124.3,6.4h1.4V0.2h-1.4V6.4z M109.5,2.7 c-1.6-0.4-1.9-0.5-1.9-0.9c0-0.5,0.5-0.7,0.9-0.7c0.7,0,1.2,0.2,1.2,0.9h1.3c0-1.4-1.2-2-2.5-2c-1.1,0-2.3,0.6-2.3,1.9 c0,1.2,0.9,1.5,1.9,1.8c0.9,0.2,1.9,0.4,1.9,1c0,0.6-0.7,0.8-1.2,0.8c-0.7,0-1.4-0.3-1.4-1.2h-1.3c0,1.5,1.3,2.2,2.7,2.2 c1.7,0,2.6-0.9,2.6-2C111.4,3.1,110,2.8,109.5,2.7z"/>
	</symbol>
	<symbol id="logos-sgf-carrington" viewBox="0 0 48.719 58.9">
		<title>Carrington Hall</title>
		<path d="M44.6,57.2h0.7v1.7h0.4v-1.7h0.7v-0.3h-1.7V57.2z M48.2,56.8l-0.6,1.6h0l-0.6-1.6h-0.5v2h0.3v-1.6h0l0.6,1.6h0.3l0.6-1.6h0  v1.6h0.3v-2H48.2z"/>
		<rect width="42.9" height="58.9"/>
		<rect x="1" y="1" class="white" width="40.9" height="56.8"/>
		<rect x="2.1" y="2.1" class="maroon" width="38.7" height="54.7"/>
		<path class="white" d="M5.1,15.6l0.5,1.2H5.3V17c0,0.2,0.2,0.4,0.4,0.4h2.4c0.2,0,0.4-0.2,0.4-0.4v-0.1H15V17c0,0.2,0.2,0.4,0.4,0.4  h2.4c0.2,0,0.4-0.2,0.4-0.4v-0.1h6.6V17c0,0.2,0.2,0.4,0.4,0.4h2.4c0.2,0,0.4-0.2,0.4-0.4v-0.1h6.6V17c0,0.2,0.2,0.4,0.4,0.4h2.4  c0.2,0,0.4-0.2,0.4-0.4v-0.2h-0.3l0.5-1.2H5.1z M35.8,38.3c1.1-0.2,1.3,0.5,1.3-8.6c0-7.4-0.2-9.2-0.3-10c-0.1-0.6-0.3-1-0.9-1  c-0.5,0-0.9,0.3-0.9,1c-0.2,3.9-0.2,10.2-0.2,18.9h0c-0.1,0-0.2,0.1-0.2,0.2c0,0.1,0.1,0.2,0.2,0.2h1.8c0.1,0,0.2-0.1,0.2-0.2  c0-0.1-0.1-0.2-0.2-0.2h-0.8C35.6,38.6,35.6,38.3,35.8,38.3z M23.3,19.5l-0.6,0.1v2.6h-2.5v-2l-0.6,0.1v5.8h3.7V19.5z M22.7,25.6  h-2.5v-2.8h2.5V25.6z M4.5,11.3c0,0.2,0.2,0.4,0.4,0.4c0.1,0,0.1,0,0.1,0V12h33v-0.4c0,0,0.1,0,0.1,0c0.2,0,0.4-0.2,0.4-0.4  c0-0.1-0.1-0.3-0.2-0.3l0.2-0.5l-17-4.9l-17,4.9L4.7,11C4.6,11,4.5,11.1,4.5,11.3z M21.5,7.1l12.3,4.1h-2l-9.3-3.1l-6.3,3.1H9.2  L21.5,7.1z M26,38.3c1.1-0.2,1.3,0.5,1.3-8.6c0-7.4-0.2-9.2-0.3-10c-0.1-0.6-0.3-1-0.9-1c-0.5,0-0.9,0.3-0.9,1  c-0.2,3.9-0.2,10.2-0.2,18.9h0c-0.1,0-0.2,0.1-0.2,0.2c0,0.1,0.1,0.2,0.2,0.2h1.8c0.1,0,0.2-0.1,0.2-0.2c0-0.1-0.1-0.2-0.2-0.2H26  C25.8,38.6,25.8,38.3,26,38.3z M33.1,19.5l-0.6,0.1v2.6H30v-2l-0.6,0.1v5.8h3.7V19.5z M32.5,25.6H30v-2.8h2.5V25.6z M19.6,37.5h3.7  v-7.4h-3.7V37.5z M20.3,30.7h2.5v2.8h-2.5V30.7z M20.3,34.1h2.5v2.8h-2.5V34.1z M29.4,37.5h3.7v-7.4h-3.7V37.5z M30,30.7h2.5v2.8  H30V30.7z M30,34.1h2.5v2.8H30V34.1z M27,18.2c0.1,0,0.2-0.1,0.2-0.2c0-0.1-0.1-0.2-0.2-0.2h-1.6c-0.1,0-0.2,0.1-0.2,0.2  c0,0.1,0.1,0.2,0.2,0.2H27z M36.8,18.2c0.1,0,0.2-0.1,0.2-0.2c0-0.1-0.1-0.2-0.2-0.2h-1.6c-0.1,0-0.2,0.1-0.2,0.2  c0,0.1,0.1,0.2,0.2,0.2H36.8z M7.5,18.2c0.1,0,0.2-0.1,0.2-0.2c0-0.1-0.1-0.2-0.2-0.2H5.9c-0.1,0-0.2,0.1-0.2,0.2  c0,0.1,0.1,0.2,0.2,0.2H7.5z M15.6,45.5c0.2,0.2,0.5,0.4,0.8,0.4c0.6,0,1.1-0.5,1.1-1.1v0h0V42h-2.2v0.5h-0.7v6.8h3.9v-6.8h-0.5V45  h0v0c0,0.7-0.6,1.3-1.3,1.3C16.2,46.3,15.8,46,15.6,45.5C15.6,45.5,15.6,45.5,15.6,45.5z M27.3,42h-2.2v0.5h-0.7v6.8h3.9v-6.8h-0.5  V45h0v0c0,0.7-0.6,1.3-1.3,1.3c-0.5,0-1-0.3-1.2-0.8c0-0.1,0-0.1,0.1,0c0.2,0.2,0.5,0.4,0.8,0.4c0.6,0,1.1-0.5,1.1-1.1c0,0,0,0,0,0  h0V42z M19.3,50.5v0.9h4.3v-0.9h-1.9v-5h1.9v-0.6h-4.3v0.6h1.9v5H19.3z M8.8,52.9h25.4v-0.7H8.8V52.9z M29.1,50.5v0.9h4.3v-0.9  h-1.9v-5h1.9v-0.6h-4.3v0.6H31v5H29.1z M38,40.1V40c0-0.3-0.3-0.5-0.5-0.5h-2.9c-0.2,0-0.5,0.2-0.5,0.5v0.1h-6V40  c0-0.3-0.3-0.5-0.5-0.5h-2.9c-0.2,0-0.5,0.2-0.5,0.5v0.1h-5.9V40c0-0.3-0.3-0.5-0.5-0.5h-2.9c-0.2,0-0.5,0.2-0.5,0.5v0.1h-6V40  c0-0.3-0.3-0.5-0.5-0.5H5.4C5.2,39.5,5,39.8,5,40v0.1H4v1.1h35v-1.1H38z M9.6,50.5v0.9h4.3v-0.9H12v-5h1.9v-0.6H9.6v0.6h1.9v5H9.6z   M37.6,45L37.6,45L37.6,45c0,0.7-0.6,1.3-1.3,1.3c-0.5,0-1-0.3-1.2-0.8c0-0.1,0-0.1,0.1,0c0.2,0.2,0.5,0.4,0.8,0.4  c0.6,0,1.1-0.5,1.1-1.1v0h0V42h-2.2v0.5h-0.7v6.8h3.9v-6.8h-0.5V45z M5.5,12.8V15h31.9v-2.2H5.5z M13.6,19.5L13,19.7v2.6h-2.5v-2  l-0.6,0.1v5.8h3.7V19.5z M13,25.6h-2.5v-2.8H13V25.6z M17.3,18.2c0.1,0,0.2-0.1,0.2-0.2c0-0.1-0.1-0.2-0.2-0.2h-1.6  c-0.1,0-0.2,0.1-0.2,0.2c0,0.1,0.1,0.2,0.2,0.2H17.3z M9.9,37.5h3.7v-7.4H9.9V37.5z M10.5,30.7H13v2.8h-2.5V30.7z M10.5,34.1H13  v2.8h-2.5V34.1z M7.8,42H5.6v0.5H4.9v6.8h3.9v-6.8H8.3V45h0c0,0,0,0,0,0c0,0.7-0.6,1.3-1.3,1.3c-0.5,0-1-0.3-1.2-0.8  c0-0.1,0-0.1,0.1,0c0.2,0.2,0.5,0.4,0.8,0.4c0.6,0,1.1-0.5,1.1-1.1c0,0,0,0,0,0h0V42z M4.9,54.5h33.2v-0.7H4.9V54.5z M6.5,38.3  c1.1-0.2,1.3,0.5,1.3-8.6c0-7.4-0.2-9.2-0.3-10c-0.1-0.6-0.3-1-0.9-1c-0.5,0-0.9,0.3-0.9,1c-0.2,3.9-0.2,10.2-0.2,18.9h0  c-0.1,0-0.2,0.1-0.2,0.2c0,0.1,0.1,0.2,0.2,0.2h1.8c0.1,0,0.2-0.1,0.2-0.2c0-0.1-0.1-0.2-0.2-0.2H6.5C6.3,38.6,6.3,38.3,6.5,38.3z   M16.2,38.3c1.1-0.2,1.3,0.5,1.3-8.6c0-7.4-0.2-9.2-0.3-10c-0.1-0.6-0.3-1-0.9-1c-0.5,0-0.9,0.3-0.9,1c-0.2,3.9-0.2,10.2-0.2,18.9  h0c-0.1,0-0.2,0.1-0.2,0.2c0,0.1,0.1,0.2,0.2,0.2h1.8c0.1,0,0.2-0.1,0.2-0.2c0-0.1-0.1-0.2-0.2-0.2h-0.8  C16.1,38.6,16.1,38.3,16.2,38.3z"/>
	</symbol>
	<symbol id="logos-sgf-missouristate" viewBox="0 0 188.724 22.569">
		<title>Missouri State</title>
		<path class="maroon" d="M59.4,11.2c-2.5-0.6-3.9-0.6-3.9-2.4c0-1.2,1.1-2.3,2.6-2.3c1.8,0,3.3,1.4,4.1,3.9l0.3,0l1.2-3.6  c-1.6-0.8-3.4-1.2-5.3-1.2c-4.1,0-6.5,1.9-6.5,4.4c0,2.5,1.6,3.3,4.9,4.1c2.3,0.6,3.5,0.9,3.5,2.5c0,1.5-1.3,2.6-3.1,2.6  c-2.3,0-3.9-1.7-4.4-4.9l-0.4-0.1l-1.5,4.3c1.8,0.9,3.9,1.4,6.1,1.4c4.6,0,7.2-1.9,7.2-4.8C64.3,12.9,62.7,12,59.4,11.2z M73,5.8  c-4.8,0-7.9,2.9-7.9,7.2c0,4.1,3.2,7.1,7.8,7.1c4.8,0,7.9-3,7.9-7.2C80.8,8.7,77.7,5.8,73,5.8z M72.9,19.3c-2.3,0-3.6-2.2-3.6-6.4  c0-4.2,1.3-6.3,3.6-6.3c2.4,0,3.6,2.2,3.6,6.4C76.6,17.2,75.3,19.3,72.9,19.3z M45.2,11.2c-2.5-0.6-3.9-0.6-3.9-2.4  c0-1.2,1.1-2.3,2.6-2.3c1.8,0,3.3,1.4,4.1,3.9l0.3,0l1.2-3.6c-1.6-0.8-3.4-1.2-5.3-1.2c-4.1,0-6.5,1.9-6.5,4.4  c0,2.5,1.6,3.3,4.9,4.1c2.3,0.6,3.5,0.9,3.5,2.5c0,1.5-1.3,2.6-3.1,2.6c-2.3,0-3.9-1.7-4.4-4.9l-0.4-0.1l-1.5,4.3  c1.8,0.9,3.9,1.4,6.1,1.4c4.6,0,7.2-1.9,7.2-4.8C50.1,12.9,48.5,12,45.2,11.2z M34.3,14.5v-3.6c0-1.7,0-3.3,0.1-4.8  C32.9,6.5,31.1,6.8,29,7v0.3c1.4,0.1,1.5,0.8,1.5,2.7v4.7c0,2.9-0.1,4.3-1.7,4.8v0.3c1.3-0.1,2.5-0.1,3.5-0.1c1.2,0,2.4,0,3.6,0.1  v-0.3C34.4,19.1,34.3,17.6,34.3,14.5z M26.2,14.4v-11c0-1.5,0.6-2.3,2-2.6V0.4c-1.5,0.1-3,0.1-4.5,0.1c-1,0-2,0-3-0.1l-5.2,13.1  c-2.6-4.4-4.8-8.8-6.9-13.1c-1.1,0-2.1,0-3.2,0c-1.5,0-3,0-4.4-0.1v0.4c2.1,0.7,2.2,2,2.2,4.8v6.5c0,5.4-0.7,8.3-3.3,9.4V22  c1.5-0.1,2.9-0.1,4.1-0.1c1,0,2.3,0,3.9,0.1v-0.4c-2.9-1-3.5-3.8-3.5-9.4V4c3,6.2,5.8,12.4,8.5,18.5h0.3l7.4-18.8v10.8  c0,4.5,0,6.6-2.3,7.1V22c2-0.1,3.6-0.1,5-0.1c1.4,0,3.1,0,5.2,0.1v-0.4C26.4,21.1,26.2,19.1,26.2,14.4z M112.4,5.3  c1.2,0,2.2-0.8,2.2-1.7c0-0.9-1-1.7-2.2-1.7c-1.2,0-2.2,0.8-2.2,1.7C110.3,4.6,111.2,5.3,112.4,5.3z M32.1,5.3  c1.2,0,2.2-0.8,2.2-1.7c0-0.9-1-1.7-2.2-1.7c-1.2,0-2.2,0.8-2.2,1.7C29.9,4.6,30.8,5.3,32.1,5.3z M161.6,13.5v-1.2  c0-2.1,0-3.6-1.1-4.8c-1-1.1-2.9-1.8-5.4-1.8c-2.2,0-4.2,0.4-6.2,1.4l1.2,3.9h0.4c0.8-3.1,2-4.5,4.1-4.5c2,0,3.1,1.6,3.1,4.7v0.1  c-6.3,0.2-9.4,1.7-9.4,4.6c0,2.4,2.1,4.2,5.4,4.2c2,0,3.3-0.7,4.3-2.5c0.2,0.8,0.5,1.5,0.9,2.2h1.2c1.1,0,2.2,0,3.2,0.1v-0.4  C161.8,19,161.6,17.3,161.6,13.5z M157.8,13c0,4-0.7,6-2.8,6c-1.3,0-2.2-1.2-2.2-3.1c0-2.4,1.5-3.8,4.4-3.8c0.2,0,0.4,0,0.6,0V13z   M145.6,13.4v-6h2.7l0.3-1.1h-3V5.4c0-1.4,0.1-2.5,0.1-3.3h-0.4c-1.1,2-2.6,3.5-4.8,4.6l-0.1,0.8h1.5l-0.1,6.4v1.9  c0,2.3,0.1,3.7,1,4.1c3.1,0,4.5,0.1,4.5,0.1v-0.3C145.8,19,145.6,17.2,145.6,13.4z M168.3,13.4v-6h2.7l0.3-1.1h-3V5.4  c0-1.4,0.1-2.5,0.1-3.3H168c-1.1,2-2.6,3.5-4.8,4.6l-0.1,0.8h1.5l-0.1,6.4v1.9c0,2.3,0.1,3.7,1,4.1c3.1,0,4.5,0.1,4.5,0.1v-0.3  C168.5,19,168.3,17.2,168.3,13.4z M184.3,14c-0.8,3.2-2.5,4.8-4.9,4.8c-2.8,0-4.5-2.3-4.5-6.3c0-0.4,0-0.8,0.1-1.3h9.9  c-0.5-3.6-3-5.6-6.9-5.6c-4.4,0-7.4,3-7.4,7.1c0,4.3,3,7.3,7.5,7.3c3.6,0,5.9-1.8,7-5.5L184.3,14z M177.8,6.5  c1.4,0,2.4,1.4,2.5,3.8h-5.4C175.3,7.9,176.3,6.5,177.8,6.5z M133.4,8.8c-3-0.6-5.2-0.7-6.3-1.6c-0.7-0.6-1.1-1.3-1.1-2.2  c0-2.1,1.9-3.7,4.9-3.7c3.3,0,5.4,1.9,6.3,5.8h0.4l1.5-5.2c-2.5-1.1-5.4-1.7-8.4-1.7c-6.1,0-9.9,2.9-9.9,6.8c0,1.6,0.7,3.2,1.9,4.2  c1.4,1.3,3.6,1.7,6.4,2.3c3.7,0.7,5.8,1.2,5.8,3.7c0,2.7-2,4.4-5.5,4.4c-4.1,0-6.8-2.5-7.6-7.1h-0.4l-1.8,6.1  c2.7,1.3,6.1,2.1,10.1,2.1c6.4,0,10.4-3.3,10.4-7.6C140.1,11.6,137.9,9.7,133.4,8.8z M96.2,13.5V9.4c0-0.3,0-1.4,0.1-3.3  c-1.6,0.4-3.3,0.7-5.3,0.9v0.3c1.4,0.1,1.5,0.8,1.5,2.7v3.4c0,3.3-1.4,5.2-3.3,5.2c-2,0-2.8-1.7-2.8-5.2V6.1  c-1.2,0.3-2.9,0.7-5.2,0.9v0.3c1.4,0.1,1.5,0.8,1.5,2.7v3.7c0,4.3,1.7,6.4,5.3,6.4c2.3,0,3.8-0.9,4.7-2.8c0.1,0.8,0.3,1.6,0.6,2.4  h1.4c1.2,0,2.4,0,3.5,0.1v-0.4C96.4,19,96.2,17.3,96.2,13.5z M104,9.3V6.1c-1.2,0.3-2.9,0.7-5.3,0.9v0.3c1.4,0.1,1.5,0.8,1.5,2.7  v4.7c0,2.9-0.1,4.3-1.7,4.8v0.3c1.3-0.1,2.5-0.1,3.5-0.1c1.2,0,2.4,0,3.6,0.1v-0.3c-1.6-0.4-1.7-1.9-1.7-5v-1.3  c0-2.5,0.8-3.8,2.2-3.8c0.4,0,0.8,0.2,1,0.5h0.3l1.4-4.3c-0.2,0-0.4,0-0.5,0C106.5,5.7,105,6.9,104,9.3z M114.4,14.5v-3.6  c0-1.7,0-3.3,0.1-4.8c-1.5,0.4-3.3,0.7-5.3,0.9v0.3c1.4,0.1,1.5,0.8,1.5,2.7v4.7c0,2.9-0.1,4.3-1.7,4.8v0.3  c1.3-0.1,2.5-0.1,3.5-0.1c1.2,0,2.4,0,3.6,0.1v-0.3C114.5,19.1,114.4,17.6,114.4,14.5z"/>
		<path class="maroon" d="M184.6,18h0.7v1.7h0.4V18h0.7v-0.3h-1.7V18z M188.2,17.7l-0.6,1.6h0l-0.6-1.6h-0.5v2h0.3v-1.6h0l0.6,1.6h0.3  l0.6-1.6h0v1.6h0.3v-2H188.2z"/>
	</symbol>
	<svg id="logo-large" viewBox="0 0 238.748 58.9">
		<title>Missouri State University</title>
		<use xlink:href="#logos-sgf-carrington" width="48.719"/>
		<use xlink:href="#logos-sgf-missouristate" x="50.024" y="11.668" width="184" height="22.569"/>
		<use xlink:href="#logos-sgf-university" x="62.772" y="41.682" width="157.117" height="6.554"/>
	</svg>
	<svg id="logo-med" viewBox="0 0 184 36.6">
		<title>Missouri State University</title>
		<use xlink:href="#logos-sgf-missouristate" width="184" height="22.6"/>
		<use xlink:href="#logos-sgf-university" x="12.748" y="30.014" width="157.1" height="6.6"/>
	</svg>
	<svg id="logo-small">
		<title>Missouri State University</title>
		<use xlink:href="#logos-sgf-carrington"/>
	</svg>
</svg>